<?xml version="1.0" encoding="UTF-8"?>
<svg id="Layer_2" data-name="Layer 2" xmlns="http://www.w3.org/2000/svg" viewBox="0 0 144.97 124.99">
  <defs>
    
  </defs>
  <g id="Layer_1-2" data-name="Layer 1">
    <path class="cls-1" d="M0,72.78c0-.72,35-46.23,53.56-70.3,3.76-4.87,11.25-2.08,11.25,4.2v56.96c0,1.52-.49,2.99-1.39,4.17l-41.35,54.23c-1.2,1.58-3.02,2.49-4.94,2.49H6.33c-3.5,0-6.33-2.98-6.33-6.66v-45.08Z"/>
    <circle class="cls-1" cx="122.23" cy="102.25" r="22.74"/>
    <path class="cls-1" d="M62.28,52.61c.34-.82,32.23-25.36,51.12-42.19,5.08-4.53,12.05-1.06,11.72,5.83v36.75c-.12,2.77-2,6.18-4.15,7.83l-54.01,38.99c-3.75,2.86-8.45.24-8.22-4.58l3.54-42.62Z"/>
  </g>
</svg>